<?xml version="1.0" encoding="utf-8"?>
<!-- Generator: Adobe Illustrator 16.0.3, SVG Export Plug-In . SVG Version: 6.00 Build 0)  -->
<!DOCTYPE svg PUBLIC "-//W3C//DTD SVG 1.1//EN" "http://www.w3.org/Graphics/SVG/1.1/DTD/svg11.dtd">
<svg version="1.1" id="Layer_4" xmlns="http://www.w3.org/2000/svg" xmlns:xlink="http://www.w3.org/1999/xlink" x="0px" y="0px"
	 width="792px" height="1224px" viewBox="0 0 792 1224" enable-background="new 0 0 792 1224" xml:space="preserve">
<title>Ca-Gov-Logo-Blue</title>
<path fill="#B42E34" d="M483.353,564.014c2.136-6.949,7.571-25.545,16.307-55.789c2.135-7.765,7.57-23.488,16.306-47.171
	c8.735-24.265,15.704-43.676,20.906-58.235c-17.027,11.774-32.658,25.451-46.588,40.766
	c-56.605,60.972-122.294,134.698-145.589,173.308c8.853-2.154,26.614-20.731,82.985-40.124
	C445.584,570.048,464.309,565.758,483.353,564.014z M473.336,602.915c-178.316,0-256.235,284.305-379.81,284.305
	c-28.069,0-49.772-12.598-65.107-37.794c-9.971-16.623-15.076-35.711-14.734-55.091c0.156-51.675,24.711-117.072,73.668-196.195
	c41.813-67.203,85.877-121.323,132.194-162.359c39.988-35.291,74.328-52.936,103.019-52.936c14.502-0.714,28.409,5.835,37.096,17.47
	c7.095,9.563,10.767,21.234,10.424,33.136c0,23.295-7.765,49.83-23.294,79.608c-13.478,25.465-30.67,48.781-51.014,69.184
	c-13.394,13.199-23.935,19.8-31.622,19.8c-5.469-0.341-10.504-3.093-13.744-7.513c-3.013-3.359-4.673-7.717-4.659-12.229
	c0-8.386,7.299-17.994,21.896-28.826c19.156-13.885,35.798-30.94,49.209-50.432c17.819-26.595,26.729-49.015,26.729-67.262
	c0.485-5.938-1.236-11.848-4.833-16.598c-3.834-3.838-9.149-5.815-14.559-5.415c-13.2,0-31.914,9.608-56.139,28.826
	c-32.233,26.231-61.575,55.827-87.528,88.284c-35.953,42.328-65.986,89.347-89.274,139.765
	c-21.082,47.56-31.622,88.188-31.622,121.887c-0.337,14.818,4.618,29.271,13.977,40.765c8.667,12.192,22.78,19.336,37.736,19.102
	c56.488-2.097,126.953-131.088,148.675-161.079c215.471-297.582,232.067-298.397,264.68-329.32
	c19.023-18.092,33.563-27.157,43.618-27.196c6.248,0.014,12.172,2.785,16.189,7.571c3.72,4.169,5.791,9.553,5.823,15.141
	c-1.459,12.225-4.86,24.138-10.074,35.291c-11.531,29.662-22.479,61.225-32.845,94.691c-9.318,29.777-15.529,52.605-18.636,68.484
	c2.878,0.083,5.758-0.034,8.619-0.35c6.949-0.232,12.772-0.349,17.471-0.349c13.898,0,20.848,5.279,20.848,15.84
	c-0.093,4.854-1.657,9.564-4.483,13.511c-2.278,3.89-5.938,6.78-10.25,8.095c-3.847,0.646-7.751,0.881-11.646,0.698
	c-10.215-0.32-20.433,0.52-30.457,2.504c-2.563,7.571-9.085,71.63-18.811,73.843c-29.991,26.206-27.72-58.235-26.09-66.796
	L473.336,602.915z"/>
<path fill="#004891" d="M297,797.421c7.548-0.119,14.813,2.871,20.091,8.27c5.444,5.252,8.46,12.528,8.328,20.091
	c0,15.712-12.736,28.448-28.448,28.448c-15.711,0-28.448-12.736-28.448-28.448c-0.032-15.631,12.613-28.328,28.244-28.36
	C296.844,797.421,296.922,797.421,297,797.421z"/>
<path fill="#004891" d="M470.657,722.064l-19.916,19.684c-11.134-12.66-27.166-19.934-44.026-19.975
	c-13.693-0.362-26.942,4.875-36.688,14.501c-9.661,9.192-15.027,22.015-14.792,35.349c-0.229,13.756,5.354,26.971,15.374,36.396
	c10.096,9.864,23.742,15.239,37.853,14.909c8.645,0.273,17.194-1.864,24.692-6.174c7.181-4.687,12.813-11.394,16.189-19.275h-42.978
	v-26.438h74.716v6.289c-0.004,13.012-3.504,25.783-10.133,36.979c-6.179,11.085-15.232,20.299-26.206,26.672
	c-11.548,6.34-24.566,9.515-37.736,9.201c-14.4,0.243-28.62-3.228-41.289-10.075c-12.064-6.673-22.013-16.601-28.71-28.651
	c-6.99-12.211-10.627-26.054-10.541-40.124c-0.271-18.963,6.707-37.314,19.509-51.306c15.258-17.288,37.465-26.82,60.507-25.973
	c12.396-0.073,24.678,2.363,36.105,7.163c10.665,4.904,20.171,12.009,27.895,20.848H470.657z"/>
<path fill="#004891" d="M567.91,694.054c20.448-0.258,40.085,7.989,54.218,22.77c14.91,14.637,23.108,34.784,22.653,55.673
	c0.415,20.607-7.648,40.482-22.305,54.975c-30.336,30.249-79.449,30.18-109.699-0.156c-0.103-0.104-0.205-0.206-0.307-0.31
	c-30.297-30.696-29.974-80.142,0.723-110.438c14.565-14.377,34.193-22.461,54.659-22.513H567.91z M567.503,721.773
	c-13.007-0.256-25.527,4.938-34.533,14.326c-9.399,9.761-14.441,22.913-13.977,36.455c-0.658,15.018,5.819,29.462,17.471,38.959
	c8.791,7.364,19.921,11.35,31.389,11.24c12.92,0.181,25.315-5.107,34.126-14.56c18.934-20.168,18.934-51.577,0-71.745
	c-8.92-9.553-21.466-14.884-34.534-14.676H567.503z"/>
<polygon fill="#004891" points="639.54,697.78 668.6,697.78 705.986,803.361 744.072,697.78 773.016,697.78 719.381,846.397 
	692.127,846.397 639.54,697.78 "/>
</svg>
