<?xml version="1.0" encoding="utf-8"?>
<!-- Generator: Adobe Illustrator 16.0.3, SVG Export Plug-In . SVG Version: 6.00 Build 0)  -->
<!DOCTYPE svg PUBLIC "-//W3C//DTD SVG 1.1//EN" "http://www.w3.org/Graphics/SVG/1.1/DTD/svg11.dtd">
<svg version="1.1" id="Layer_1" xmlns="http://www.w3.org/2000/svg" xmlns:xlink="http://www.w3.org/1999/xlink" x="0px" y="0px"
	 width="300px" height="80px" viewBox="0 0 300 80" enable-background="new 0 0 300 80" xml:space="preserve">
<g>
	<path fill="#004694" d="M62.907,38.842c0,10.242-2.993,18.43-8.988,24.561c-5.995,6.135-12.914,9.198-20.784,9.198
		c-7.533,0-14.154-2.813-19.846-8.44c-5.688-5.619-8.536-13.219-8.536-22.795c0-10.365,2.999-18.581,8.989-24.651
		C19.726,10.641,26.658,7.61,34.52,7.61c7.543,0,14.163,2.806,19.851,8.436C60.057,21.67,62.907,29.28,62.907,38.842z
		 M54.437,39.939c0-8.181-2.143-14.515-6.442-18.994c-4.291-4.484-9.245-6.729-14.859-6.729c-5.197,0-9.818,2.371-13.873,7.083
		c-4.06,4.726-6.092,11.031-6.092,18.926c0,8.207,2.166,14.561,6.487,19.04C23.985,63.743,28.938,66,34.52,66
		c5.199,0,9.814-2.396,13.864-7.178C52.418,54.027,54.437,47.737,54.437,39.939z"/>
	<path fill="#004694" d="M112.186,54.726c0,11.73-8.162,17.588-24.489,17.588c-5.96,0-11.251-0.684-15.878-2.036l1.658-7.463
		c5.326,1.833,10.388,2.761,15.168,2.761c10.777,0,16.171-3.048,16.171-9.133c0-3.087-1.398-5.708-4.188-7.903
		c-1.875-1.448-5.545-3.408-11.035-5.844c-5.764-2.563-9.806-4.934-12.117-7.083c-3.201-2.98-4.8-6.725-4.8-11.217
		c0-4.695,1.629-8.512,4.89-11.465c3.644-3.289,8.8-4.944,15.457-4.944c7.538,0,12.713,0.492,15.497,1.471l-1.14,7.56
		c-4.821-1.513-9.939-2.279-15.356-2.279c-8.149,0-12.219,2.726-12.219,8.178c0,2.633,1.173,4.842,3.518,6.615
		c1.522,1.115,4.884,2.787,10.07,5.032c5.944,2.57,10.209,5.003,12.841,7.324C110.204,45.381,112.186,49.651,112.186,54.726z"/>
	<path fill="#004694" d="M235.911,24.207c0,7.224-2.744,12.623-8.223,16.204c-5.488,3.587-12.859,5.374-22.113,5.374
		c-1.162,0-2.185-0.029-3.038-0.101c0,6.926,0.253,15.267,0.758,25.065h-9.127c0.473-9.003,0.715-19.841,0.715-32.522
		c0-10.902-0.242-20.699-0.715-29.379h6.804c0.725,0,2.807-0.048,6.252-0.149c3.436-0.089,6.354-0.137,8.767-0.137
		c6.086,0,10.929,1.384,14.526,4.16C234.115,15.499,235.911,19.318,235.911,24.207z M227.98,26.957
		c0-8.144-5.567-12.219-16.692-12.219c-2.739,0-5.787,0.236-9.183,0.713c0.23,5.175,0.33,13.218,0.33,24.157
		c1.112,0.056,2.481,0.09,4.099,0.09C220.824,39.698,227.98,35.455,227.98,26.957z"/>
	<path fill="#004694" d="M295.102,37.565c0,8.998-2.874,16.889-8.624,23.675c-5.75,6.785-13.689,10.179-23.8,10.179
		c-3.299,0-8.801-0.228-16.508-0.67c0.482-9.823,0.718-20.667,0.718-32.522c0-11.152-0.235-20.952-0.718-29.379h5.238
		c1.267,0,3.199-0.048,5.799-0.149c2.604-0.089,4.312-0.137,5.135-0.137c11.192,0,19.449,2.751,24.767,8.246
		C292.437,22.31,295.102,29.225,295.102,37.565z M286.835,39.698c0-7.039-2.246-12.903-6.735-17.633
		c-4.479-4.729-11.42-7.092-20.8-7.092c-1.331,0-3.149,0.16-5.458,0.478c0.25,7.386,0.376,14.986,0.376,22.776
		c0,8.555,0.175,17.245,0.518,26.058c2.536,0.502,4.985,0.754,7.326,0.754c8.362,0,14.593-2.475,18.666-7.436
		C284.792,52.641,286.835,46.675,286.835,39.698z"/>
	<g>
		<path fill="#004694" d="M136.685,44.85c0,0,0.28-28.251,0.611-36.002h-9.03c0.437,8.994,0.662,18.791,0.662,29.379
			c0,10.104-0.225,20.948-0.662,32.522h9.03C137.032,60.136,136.685,44.85,136.685,44.85z"/>
		<path fill="#004694" d="M173.856,8.848h-9.036c0.381,10.74,0.573,19.555,0.573,26.424l-0.098,5.992
			c0,8.695-0.156,18.517-0.476,29.485h9.036c-0.482-9.856-0.712-20.706-0.712-32.522C173.145,27.45,173.374,17.657,173.856,8.848z"
			/>
	</g>
	<path fill="#B42E34" d="M123.511,45.671v7.651c13.504-11.392,30.841-18.241,53.674-13.341V29.28
		C154.011,26.469,135.868,36.238,123.511,45.671z"/>
</g>
</svg>
